<?xml version="1.0" encoding="UTF-8"?>
<svg version="1.1" xmlns="http://www.w3.org/2000/svg" width="280" height="280">
<path d="M0 0 C5.123951 6.07607881 7.26788118 12.80095147 7.1953125 20.7109375 C7.18886719 21.95488281 7.18242187 23.19882812 7.17578125 24.48046875 C7.15902344 25.76566406 7.14226562 27.05085938 7.125 28.375 C7.11597656 29.68339844 7.10695312 30.99179687 7.09765625 32.33984375 C7.07415085 35.5600837 7.04129087 38.77994707 7 42 C7.79583496 42.03963867 8.59166992 42.07927734 9.41162109 42.12011719 C13.06726017 42.31232363 16.72087377 42.53097145 20.375 42.75 C21.62667969 42.811875 22.87835938 42.87375 24.16796875 42.9375 C32.73316357 43.47562742 40.45665134 44.48352202 47.40234375 49.859375 C52.85548418 56.57520189 55.74946892 62.61908703 55.3984375 71.421875 C54.2881514 78.60607918 50.79258649 83.71867865 45.375 88.4375 C33.27912766 97.16557115 22.59683002 95 7 95 C7.33 119.75 7.66 144.5 8 170 C10.94500871 170.98166957 12.935254 171.13714495 16.0078125 171.17578125 C16.99523437 171.19962891 17.98265625 171.22347656 19 171.24804688 C21.05969482 171.29052808 23.11964938 171.32203948 25.1796875 171.34179688 C35.09759767 171.6180081 42.07231617 174.44129019 49.33984375 181.203125 C54.2659747 186.53493732 55.35269922 192.83625615 55.20703125 199.89453125 C54.47152786 207.37446195 50.49151079 213.0245589 45 218 C44.34 218 43.68 218 43 218 C43 218.66 43 219.32 43 220 C30.88870064 224.30689382 19.29288374 224.62073245 6.53759766 224.52148438 C3.24177256 224.49994623 -0.05189509 224.52142889 -3.34765625 224.546875 C-5.47656723 224.54423293 -7.60547689 224.53911045 -9.734375 224.53125 C-10.70236023 224.53934692 -11.67034546 224.54744385 -12.66766357 224.55578613 C-22.63776669 224.42087153 -31.17388136 221.73613262 -38.41015625 214.70703125 C-46.11392801 206.4354139 -44.14636035 193.55435435 -44.12939453 182.8918457 C-44.13075325 181.50686599 -44.13253581 180.12188664 -44.13470459 178.73690796 C-44.13923529 174.99738042 -44.13750411 171.25788073 -44.1343255 167.51835275 C-44.13176456 163.55326538 -44.13415106 159.58818013 -44.13571167 155.62309265 C-44.13752873 148.93614281 -44.13514565 142.24920402 -44.13037109 135.56225586 C-44.12558356 128.78099847 -44.12551969 121.99976318 -44.13037109 115.21850586 C-44.14381651 95.47408184 -44.12007466 75.73037795 -44.02518153 55.98615682 C-44.00503604 51.6518652 -43.99531956 47.31767198 -43.99206543 42.9833374 C-43.98684497 38.12723278 -43.95461537 33.27232674 -43.89278793 28.41661644 C-43.87611001 26.7888212 -43.86904871 25.16089005 -43.87305069 23.5330143 C-43.88784219 14.44050336 -43.16192411 7.15465897 -37 0 C-26.22308454 -9.2342062 -11.04123981 -8.81966238 0 0 Z " fill="#F28E1F" transform="translate(219,18)"/>
<path d="M0 0 C1.76159267 -0.00643698 3.52318429 -0.013166 5.28477478 -0.02017212 C8.96371948 -0.03209943 12.64257056 -0.03585735 16.3215332 -0.03466797 C21.02109963 -0.03446435 25.72006428 -0.06183078 30.41948795 -0.09621239 C34.05275706 -0.11850671 37.68588147 -0.12250483 41.31921196 -0.12144852 C43.05146812 -0.12379817 44.78372866 -0.1325857 46.51591682 -0.14811325 C48.94210666 -0.16783764 51.36699958 -0.16191228 53.79321289 -0.14990234 C54.8509491 -0.16676086 54.8509491 -0.16676086 55.93005371 -0.18395996 C61.43263069 -0.11517826 65.26508984 1.62015134 69.90234375 4.3359375 C69.90234375 4.9959375 69.90234375 5.6559375 69.90234375 6.3359375 C70.62421875 6.5009375 71.34609375 6.6659375 72.08984375 6.8359375 C76.14153007 8.99683687 77.91013736 12.2749014 79.90234375 16.3359375 C80.77434454 19.23476421 81.02696217 21.82185483 81.02500916 24.84303284 C81.02745636 26.19052864 81.02745636 26.19052864 81.029953 27.56524658 C81.02643326 28.54346375 81.02291351 29.52168091 81.01928711 30.52954102 C81.01931732 31.56584152 81.01934753 32.60214203 81.01937866 33.66984558 C81.01698511 37.1015619 81.00583457 40.53315441 80.9921875 43.96484375 C80.98772676 45.13896254 80.98326603 46.31308132 80.97867012 47.52277946 C80.95298995 53.74058327 80.91912981 59.9582919 80.88012695 66.17602539 C80.84957727 71.31186549 80.83585008 76.44732283 80.8371582 81.58325195 C80.83868534 87.7932828 80.81102636 94.00254812 80.76272774 100.21238518 C80.74912721 102.57288949 80.74557297 104.93347488 80.75248528 107.29400826 C80.80835896 132.02598163 80.80835896 132.02598163 71.82579041 141.53395081 C67.39335373 145.68649223 61.36211588 146.53119828 55.46484375 146.7734375 C47.65744927 146.50045168 41.34852556 144.30217792 35.90234375 138.5859375 C32.75531648 134.58130801 31.4019187 131.41494948 30.90234375 126.3359375 C32.54800806 121.97976727 34.97726233 120.5852863 38.90234375 118.3359375 C38.74894531 117.28535156 38.59554687 116.23476562 38.4375 115.15234375 C36.89668097 102.39424064 36.89668097 102.39424064 41.02734375 97.0859375 C43.03785604 94.92873547 45.04998381 93.22856291 47.4375 91.4921875 C50.34842159 88.94570776 51.58376834 86.57568024 53.21484375 83.0859375 C53.72660156 82.00828125 54.23835937 80.930625 54.765625 79.8203125 C55.14074219 79.00046875 55.51585937 78.180625 55.90234375 77.3359375 C54.66484375 77.6659375 53.42734375 77.9959375 52.15234375 78.3359375 C49.1564253 79.13484909 47.10126656 79.3359375 43.90234375 79.3359375 C43.59296875 78.253125 43.59296875 78.253125 43.27734375 77.1484375 C41.78532566 74.09658231 40.04129528 72.76323895 37.41796875 70.6875 C32.0716325 65.91989087 30.62539361 58.64604817 28.734375 52.03125 C28.16525664 49.44315783 28.16525664 49.44315783 26.90234375 48.3359375 C25.20078125 48.366875 25.20078125 48.366875 23.46484375 48.3984375 C18.45094486 48.48033422 13.76925898 47.45293444 8.90234375 46.3359375 C8.90234375 47.3259375 8.90234375 48.3159375 8.90234375 49.3359375 C4.05575298 48.74488985 0.29486208 47.35649593 -4.09765625 45.3359375 C-4.09765625 43.3559375 -4.09765625 41.3759375 -4.09765625 39.3359375 C-5.88972172 39.47678546 -7.68130542 39.62377451 -9.47265625 39.7734375 C-10.47039062 39.85464844 -11.468125 39.93585938 -12.49609375 40.01953125 C-15.07693238 40.18559376 -15.07693238 40.18559376 -17.09765625 41.3359375 C-18.35578125 41.2534375 -19.61390625 41.1709375 -20.91015625 41.0859375 C-24.42481598 41.04136754 -24.95321255 41.2235924 -27.91015625 43.5234375 C-30.11238764 46.21808637 -30.11238764 46.21808637 -31.59765625 48.9609375 C-33.38445396 51.79003387 -35.25190797 52.6576757 -38.09765625 54.3359375 C-39.42559231 56.40294405 -39.42559231 56.40294405 -40.09765625 58.3359375 C-40.75765625 58.3359375 -41.41765625 58.3359375 -42.09765625 58.3359375 C-42.42765625 62.2959375 -42.75765625 66.2559375 -43.09765625 70.3359375 C-43.75765625 70.3359375 -44.41765625 70.3359375 -45.09765625 70.3359375 C-42.1104757 77.80388887 -39.14499256 83.17160241 -32.09765625 87.3359375 C-31.43765625 87.0059375 -30.77765625 86.6759375 -30.09765625 86.3359375 C-29.43765625 86.0059375 -28.77765625 85.6759375 -28.09765625 85.3359375 C-27.78828125 86.0578125 -27.47890625 86.7796875 -27.16015625 87.5234375 C-22.63482655 93.69434164 -16.38146213 95.51084161 -9.03515625 96.6484375 C-7.05811687 96.89528434 -5.07944864 97.13071325 -3.09765625 97.3359375 C-3.09765625 98.3259375 -3.09765625 99.3159375 -3.09765625 100.3359375 C-2.60265625 101.4084375 -2.10765625 102.4809375 -1.59765625 103.5859375 C0.04792425 107.2826444 0.27896028 110.26847898 -0.09765625 114.3359375 C-0.44828125 115.2021875 -0.79890625 116.0684375 -1.16015625 116.9609375 C-2.77062263 121.04078567 -1.32713537 123.77267057 0.27734375 127.7109375 C0.81359375 128.9071875 1.34984375 130.1034375 1.90234375 131.3359375 C2.4251006 132.56428734 2.94597908 133.79343851 3.46484375 135.0234375 C4.78036166 138.18757062 4.78036166 138.18757062 6.08984375 140.5234375 C6.90234375 142.3359375 6.90234375 142.3359375 6.90234375 146.3359375 C-28.91673944 147.40198164 -28.91673944 147.40198164 -43.09765625 138.3359375 C-44.103125 137.70816406 -45.10859375 137.08039063 -46.14453125 136.43359375 C-59.89121585 127.56651106 -72.20916398 113.74819292 -76.61328125 97.58984375 C-76.85304688 96.47416016 -76.85304688 96.47416016 -77.09765625 95.3359375 C-77.29875 94.45808594 -77.49984375 93.58023438 -77.70703125 92.67578125 C-81.59138167 72.33543277 -80.56318168 50.97721185 -69.09765625 33.3359375 C-68.10401334 32.32962057 -67.10432714 31.32922181 -66.09765625 30.3359375 C-65.63230469 29.53285156 -65.16695312 28.72976562 -64.6875 27.90234375 C-62.96391469 25.1200451 -61.14886792 23.38443576 -58.66015625 21.2734375 C-56.36878282 19.31549574 -54.14133989 17.3800317 -52.01953125 15.23828125 C-38.42042961 1.77738186 -17.97486126 0.01547162 0 0 Z " fill="#0A733F" transform="translate(83.09765625,94.6640625)"/>
<path d="M0 0 C7.40141002 -0.10173363 14.80263853 -0.1716057 22.20458984 -0.21972656 C24.72060891 -0.23979516 27.23658161 -0.2670563 29.75244141 -0.30175781 C33.37674428 -0.35048312 37.00042841 -0.37301722 40.625 -0.390625 C41.74302002 -0.41127014 42.86104004 -0.43191528 44.01293945 -0.45318604 C50.82602357 -0.45512701 55.16539716 0.4275419 61 4 C61 4.66 61 5.32 61 6 C61.721875 6.165 62.44375 6.33 63.1875 6.5 C67.23918632 8.66089937 69.00779361 11.9389639 71 16 C71.87200079 18.89882671 72.12461842 21.48591733 72.12266541 24.50709534 C72.12511261 25.85459114 72.12511261 25.85459114 72.12760925 27.22930908 C72.12408951 28.20752625 72.12056976 29.18574341 72.11694336 30.19360352 C72.11697357 31.22990402 72.11700378 32.26620453 72.11703491 33.33390808 C72.11464136 36.7656244 72.10349082 40.19721691 72.08984375 43.62890625 C72.08315265 45.39008443 72.08315265 45.39008443 72.07632637 47.18684196 C72.0506462 53.40464577 72.01678606 59.6223544 71.9777832 65.84008789 C71.94723352 70.97592799 71.93350633 76.11138533 71.93481445 81.24731445 C71.93634159 87.4573453 71.90868261 93.66661062 71.86038399 99.87644768 C71.84678346 102.23695199 71.84322922 104.59753738 71.85014153 106.95807076 C71.90601521 131.69004413 71.90601521 131.69004413 62.92344666 141.19801331 C58.49100998 145.35055473 52.45977213 146.19526078 46.5625 146.4375 C38.75510552 146.16451418 32.44618181 143.96624042 27 138.25 C23.85297273 134.24537051 22.49957495 131.07901198 22 126 C23.64566431 121.64382977 26.07491858 120.2493488 30 118 C29.84660156 116.94941406 29.69320312 115.89882812 29.53515625 114.81640625 C27.99433722 102.05830314 27.99433722 102.05830314 32.125 96.75 C34.13551229 94.59279797 36.14764006 92.89262541 38.53515625 91.15625 C41.44607784 88.60977026 42.68142459 86.23974274 44.3125 82.75 C44.82425781 81.67234375 45.33601563 80.5946875 45.86328125 79.484375 C46.23839844 78.66453125 46.61351562 77.8446875 47 77 C45.14375 77.495 45.14375 77.495 43.25 78 C40.25408155 78.79891159 38.19892281 79 35 79 C34.79375 78.278125 34.5875 77.55625 34.375 76.8125 C32.88634847 73.76753096 31.16788041 72.43329607 28.52734375 70.38671875 C24.95082956 67.13949998 22.93357404 62.69650915 22 58 C21.89520542 55.11336921 21.83911006 52.24638002 21.82421875 49.359375 C21.80101418 47.63149832 21.77689659 45.9036337 21.75195312 44.17578125 C21.71692214 41.46590153 21.68753211 38.7564648 21.67407227 36.04638672 C21.65849921 33.4210098 21.61823009 30.79690992 21.57421875 28.171875 C21.57612717 27.37263611 21.57803558 26.57339722 21.58000183 25.74993896 C21.43643604 19.07007491 19.44081422 13.95301935 15.17578125 8.79296875 C10.43799135 4.71072211 6.08368147 2.47867258 0 1 C0 0.67 0 0.34 0 0 Z " fill="#129446" transform="translate(92,95)"/>
<path d="M0 0 C0.33 0 0.66 0 1 0 C1.33 24.75 1.66 49.5 2 75 C4.94500871 75.98166957 6.935254 76.13714495 10.0078125 76.17578125 C11.48894531 76.21155273 11.48894531 76.21155273 13 76.24804688 C15.05969482 76.29052808 17.11964938 76.32203948 19.1796875 76.34179688 C29.09759767 76.6180081 36.07231617 79.44129019 43.33984375 86.203125 C48.2659747 91.53493732 49.35269922 97.83625615 49.20703125 104.89453125 C48.47152786 112.37446195 44.49151079 118.0245589 39 123 C38.34 123 37.68 123 37 123 C37 123.66 37 124.32 37 125 C27.37896735 127.83820463 20.12416369 129.29306711 10.95703125 124.375 C6.37206764 121.15362836 3.07862438 116.61793656 0 112 C-0.24609566 109.88171101 -0.24609566 109.88171101 -0.24050903 107.38728333 C-0.24325836 106.44077408 -0.24600769 105.49426483 -0.24884033 104.51907349 C-0.24164978 103.4825766 -0.23445923 102.44607971 -0.22705078 101.37817383 C-0.22734283 100.28533585 -0.22763489 99.19249786 -0.22793579 98.06654358 C-0.22654007 94.44662596 -0.2109673 90.826913 -0.1953125 87.20703125 C-0.19158324 84.70025241 -0.18873586 82.19347211 -0.18673706 79.68669128 C-0.17987545 73.75812501 -0.16410513 67.82962463 -0.14403808 61.90109223 C-0.11949512 54.48941313 -0.10874934 47.07772495 -0.09765625 39.66601562 C-0.07619414 26.44397296 -0.04243322 13.22199114 0 0 Z " fill="#E2252A" transform="translate(225,113)"/>
<path d="M0 0 C0.33 0 0.66 0 1 0 C1 9.24 1 18.48 1 28 C9.76340844 28.49687404 9.76340844 28.49687404 18.52880859 28.95605469 C26.97000504 29.49670225 34.56426072 30.56680992 41.40234375 35.859375 C46.85548418 42.57520189 49.74946892 48.61908703 49.3984375 57.421875 C48.29354523 64.57117792 44.80395933 69.71052214 39.4375 74.4375 C34.06305117 78.36436663 28.69228282 80.65541091 22 81 C14.33524491 79.50622984 6.584065 73.47233734 2 67.3125 C0.18169339 63.10766596 -0.12298764 59.5260162 -0.11352539 54.94628906 C-0.11344986 53.72532532 -0.11337433 52.50436157 -0.11329651 51.24639893 C-0.10813522 49.93274353 -0.10297394 48.61908813 -0.09765625 47.265625 C-0.09579021 45.9037074 -0.09436718 44.54178912 -0.09336853 43.17987061 C-0.08955803 39.60258111 -0.07974032 36.02533248 -0.06866455 32.44805908 C-0.05841884 28.79480543 -0.05386415 25.14154514 -0.04882812 21.48828125 C-0.03811669 14.32550224 -0.02105794 7.16275686 0 0 Z " fill="#E4242B" transform="translate(225,32)"/>
</svg>
